<?xml version="1.0" encoding="utf-8"?>
<!-- Generator: Adobe Illustrator 20.1.0, SVG Export Plug-In . SVG Version: 6.00 Build 0)  -->
<svg version="1.1" id="Layer_1" xmlns="http://www.w3.org/2000/svg" xmlns:xlink="http://www.w3.org/1999/xlink" x="0px" y="0px"
	 viewBox="0 0 60 60" style="enable-background:new 0 0 60 60;" xml:space="preserve">
<style type="text/css">
	.st0{fill:#00C285;}
</style>
<title></title>
<g>
	<g>
		<path class="st0" d="M53.4,18.3C47,5.8,31.6,0.9,19.1,7.3C6.5,13.7,1.6,29.1,8,41.7L3.7,52l11.4-1.8c7.8,6.1,18.5,7,27.3,2.5
			C54.9,46.3,59.9,30.9,53.4,18.3z M35,43c-0.1,0.1-2.5,2.1-5.9,2.1c-0.6,0-1.2-0.1-1.8-0.2c-1.7-0.3-3-1.3-3.6-2.7
			c-0.8-1.7-0.7-3.9,0.5-6.1l1.9-3.8c1-2,0.4-2.4,0.1-2.6c-0.1,0-0.3-0.1-0.8-0.1c-0.9,0-2,0.3-2,0.4c-0.4,0.1-0.9,0-1.1-0.4
			c-0.2-0.4-0.1-0.9,0.2-1.2c0.1-0.1,2.4-2.1,5.9-2.1c0.6,0,1.2,0.1,1.8,0.2c1.7,0.3,3,1.3,3.6,2.7c0.8,1.7,0.7,3.9-0.5,6.1
			l-1.9,3.8c-1,2-0.4,2.4-0.1,2.6c0.1,0,0.3,0.1,0.8,0.1c0.9,0,2-0.3,2-0.4c0.4-0.1,0.9,0,1.1,0.4C35.4,42.2,35.3,42.7,35,43z
			 M32.4,24.3c-2.6,0-4.7-2.1-4.7-4.7c0-2.6,2.1-4.7,4.7-4.7c2.6,0,4.7,2.1,4.7,4.7C37.2,22.2,35.1,24.3,32.4,24.3z"/>
	</g>
</g>
</svg>
