<!-- Generator: Adobe Illustrator 20.1.0, SVG Export Plug-In  -->
<svg version="1.1"
	 xmlns="http://www.w3.org/2000/svg" xmlns:xlink="http://www.w3.org/1999/xlink" xmlns:a="http://ns.adobe.com/AdobeSVGViewerExtensions/3.0/"
	 x="0px" y="0px" width="90px" height="90px" viewBox="0 0 90 90" style="enable-background:new 0 0 90 90;" xml:space="preserve">
<style type="text/css">
	.st0{fill:#928264;}
</style>
<defs>
</defs>
<path class="st0" d="M45,0C20.2,0,0,20.2,0,45s20.2,45,45,45s45-20.2,45-45S69.8,0,45,0z M45,85C22.9,85,5,67.1,5,45S22.9,5,45,5
	s40,17.9,40,40S67.1,85,45,85z"/>
<path class="st0" d="M45,60c-4.1,0-7.5,3.4-7.5,7.5S40.9,75,45,75s7.5-3.4,7.5-7.5S49.1,60,45,60z M45,70c-1.4,0-2.5-1.1-2.5-2.5
	S43.6,65,45,65s2.5,1.1,2.5,2.5S46.4,70,45,70z"/>
<path class="st0" d="M45,15c-5.5,0-10,4.5-10,10c0,12.1,2.7,30,10,30s10-17.9,10-30C55,19.5,50.5,15,45,15z M45,49.9
	c-1.8-1.3-5-10.7-5-24.9c0-2.8,2.2-5,5-5s5,2.2,5,5C50,39.2,46.8,48.6,45,49.9z"/>
</svg>
