<?xml version="1.0" encoding="utf-8"?>
<!-- Generator: Adobe Illustrator 20.1.0, SVG Export Plug-In . SVG Version: 6.00 Build 0)  -->
<svg version="1.1" id="Layer_1" xmlns="http://www.w3.org/2000/svg" xmlns:xlink="http://www.w3.org/1999/xlink" x="0px" y="0px"
	 viewBox="0 0 49 64" style="enable-background:new 0 0 49 64;" xml:space="preserve">
<style type="text/css">
	.st0{fill:#0073B6;}
	.st1{fill:#059CE8;}
	.st2{fill:#FFFFFF;}
</style>
<g>
	<path class="st0" d="M49,16.8v42.1c0,2.8-2.3,5.1-5.1,5.1H5.1C2.3,64,0,61.7,0,58.9V5.1C0,2.3,2.3,0,5.1,0h27L49,16.8z"/>
	<path class="st1" d="M49,15.9V18H35.2c-2.9,0-4.2-2.3-4.2-5.2V0h2.1L49,15.9z"/>
	<path class="st2" d="M37.6,34c-0.4-0.1-0.9-0.2-1.3-0.2c-0.5,0-0.8,0.1-0.9,0.3c-0.2,0.2-0.3,0.5-0.3,1V36h1.9v1.9h-1.9v7.6h-2.3
		v-7.6h-1.2V36h1.2v-0.9c0-1.2,0.3-2,0.9-2.6c0.6-0.5,1.5-0.8,2.6-0.8c0.6,0,1.1,0.1,1.8,0.2L37.6,34z M27.8,44.6
		c-0.4,0.4-0.9,0.7-1.4,0.9c-0.5,0.2-1,0.3-1.7,0.3c-1.2,0-2.1-0.4-2.8-1.3c-0.6-0.9-1-2.1-1-3.7c0-1.6,0.3-2.9,1-3.8
		c0.7-0.9,1.7-1.3,2.9-1.3c0.4,0,0.9,0.1,1.4,0.3c0.5,0.2,0.9,0.4,1.2,0.7v-4.7h2.3v13.5h-2.2V44.6z M27.6,38.7
		c-0.2-0.2-0.6-0.4-0.9-0.6c-0.4-0.2-0.7-0.3-1.1-0.3c-0.6,0-1.1,0.3-1.5,0.8c-0.4,0.5-0.6,1.3-0.6,2.2c0,0.9,0.2,1.6,0.5,2.1
		c0.3,0.5,0.8,0.8,1.4,0.8c0.4,0,0.8-0.1,1.2-0.3c0.4-0.2,0.7-0.4,1-0.7V38.7z M17.6,45.2c-0.6,0.4-1.3,0.6-2.1,0.6
		c-1.1,0-2-0.3-2.7-1v4.3h-2.3V36h2.2V37c0.4-0.4,0.9-0.7,1.4-0.9s1-0.3,1.7-0.3c1.2,0,2.1,0.4,2.7,1.3c0.6,0.8,0.9,2.1,0.9,3.7
		c0,1-0.2,1.9-0.5,2.7S18.2,44.8,17.6,45.2z M16.5,38.6c-0.3-0.5-0.8-0.8-1.4-0.8c-0.4,0-0.8,0.1-1.2,0.3c-0.4,0.2-0.7,0.4-1,0.7
		v4.2c0.2,0.2,0.6,0.4,0.9,0.6c0.4,0.2,0.7,0.3,1.1,0.3c0.6,0,1.1-0.3,1.5-0.8c0.4-0.5,0.6-1.3,0.6-2.2C17,39.8,16.8,39.1,16.5,38.6
		z"/>
</g>
</svg>
