<?xml version="1.0" encoding="utf-8"?>
<!-- Generator: Adobe Illustrator 20.1.0, SVG Export Plug-In . SVG Version: 6.00 Build 0)  -->
<svg version="1.1" id="Layer_1" xmlns="http://www.w3.org/2000/svg" xmlns:xlink="http://www.w3.org/1999/xlink" x="0px" y="0px"
	 viewBox="0 0 64 64" style="enable-background:new 0 0 64 64;" xml:space="preserve">
<style type="text/css">
	.st0{fill:#E0E0D1;}
	.st1{opacity:0.2;}
	.st2{fill:#231F20;}
	.st3{fill:#CCCABA;}
	.st4{fill:#EBD6BD;}
	.st5{fill:#E6E6E6;}
	.st6{fill:#F3AF14;}
	.st7{fill:#4C4C4C;}
	.st8{fill:#FDB59D;}
	.st9{fill:#DB9312;}
	.st10{fill:#D1D3D4;}
	.st11{fill:#EF9C89;}
</style>
<g>
	<g>
		<g>
			<path class="st0" d="M15.5,20.6H4.4v31c0,2.1,1.7,3.7,3.7,3.7h32.2c2.1,0,3.7-1.7,3.7-3.7V9.5c0-2.1-1.7-3.7-3.7-3.7H19.2v11.1
				C19.2,19,17.6,20.6,15.5,20.6z"/>
		</g>
	</g>
	<g class="st1">
		<rect x="24.7" y="18.1" class="st2" width="11.9" height="2.5"/>
	</g>
	<g class="st1">
		<rect x="11.8" y="30.5" class="st2" width="24.8" height="2.5"/>
	</g>
	<g class="st1">
		<rect x="11.8" y="24.3" class="st2" width="24.8" height="2.5"/>
	</g>
	<g class="st1">
		<rect x="11.8" y="36.7" class="st2" width="24.8" height="2.5"/>
	</g>
	<g class="st1">
		<rect x="11.8" y="42.9" class="st2" width="15" height="2.5"/>
	</g>
</g>
<g id="Layer_2">
</g>
<g>
	<path class="st3" d="M4.4,20.6h11.1c2.1,0,3.7-1.7,3.7-3.7V5.8L4.4,20.6z"/>
</g>
<g>
	<g id="Pencil_1_">
		<g id="Pencil">
			<polygon id="Head" class="st4" points="37.1,46.1 38.8,47.1 41.9,44.6 43.2,42.4 38.8,40 37.6,42.1 			"/>
			
				<rect id="Eraser_x5F_Holder" x="52.5" y="16.1" transform="matrix(0.4917 -0.8708 0.8708 0.4917 11.1946 56.257)" class="st5" width="2.5" height="5"/>
			<path class="st6" d="M41.9,44.6L41.9,44.6L41.9,44.6L41.9,44.6z M51,18.4L37.6,42.1c0.4-0.6,1.1-0.8,1.7-0.5
				c0.5,0.3,0.7,0.7,0.8,1.1c0.3-0.3,0.9-0.3,1.4,0c0.6,0.4,0.8,1.1,0.5,1.7l13.4-23.7l-4.3-2.4L51,18.4z"/>
			<polygon id="Nip" class="st7" points="38.8,47.1 36.7,48.7 37.1,46.1 			"/>
			
				<rect id="Eraser" x="53.4" y="13.4" transform="matrix(0.4917 -0.8708 0.8708 0.4917 14.3163 56.2121)" class="st8" width="3.7" height="5"/>
			<g id="Bevel">
				<path class="st9" d="M53.2,19.6L40.1,42.8c0.4-0.2,0.9-0.3,1.4,0c0.6,0.4,0.8,1.1,0.5,1.7l13.4-23.7l-2.2-1.2L53.2,19.6z
					 M41.9,44.6L41.9,44.6L41.9,44.6L41.9,44.6z"/>
				
					<rect x="53.6" y="17.9" transform="matrix(0.4917 -0.8708 0.8708 0.4917 11.2125 57.5057)" class="st10" width="2.5" height="2.5"/>
				
					<rect x="54.5" y="15.2" transform="matrix(0.4917 -0.8708 0.8708 0.4917 14.3343 57.4608)" class="st11" width="3.7" height="2.5"/>
			</g>
		</g>
	</g>
</g>
</svg>
