<!-- Generator: Adobe Illustrator 19.2.1, SVG Export Plug-In  -->
<svg version="1.1"
	 xmlns="http://www.w3.org/2000/svg" xmlns:xlink="http://www.w3.org/1999/xlink" xmlns:a="http://ns.adobe.com/AdobeSVGViewerExtensions/3.0/"
	 x="0px" y="0px" width="15.9px" height="18.2px" viewBox="0 0 15.9 18.2" style="enable-background:new 0 0 15.9 18.2;"
	 xml:space="preserve">
<style type="text/css">
	.st0{opacity:0.262;}
	.st1{fill:none;stroke:#000000;stroke-linecap:round;stroke-linejoin:round;}
</style>
<defs>
</defs>
<g id="Page-1_2_" class="st0">
	<g id="Desktop-HD-Copy_1_" transform="translate(-276.000000, -127.000000)">
		<g id="Page-1_3_" transform="translate(277.000000, 127.000000)">
			<path id="Stroke-1_1_" class="st1" d="M2.4,17.6c-1.5,0.2-2.8-0.4-2.9-1.4s0.9-1.9,2.3-2.1c1.5-0.2,2.8,0.4,2.9,1.4
				C4.9,16.5,3.9,17.4,2.4,17.6z"/>
			<path id="Stroke-3_1_" class="st1" d="M14.3,13.6c0.2,1-0.8,1.9-2.1,2.1s-2.5-0.4-2.7-1.4c-0.2-1,0.8-1.9,2.1-2.1
				C13,12.1,14.2,12.7,14.3,13.6L14.3,13.6z"/>
			<path id="Stroke-5_1_" class="st1" d="M5.2,3.3l9.2-2.8"/>
			<path id="Stroke-7_1_" class="st1" d="M5.2,7.2l9.2-2.8"/>
			<path id="Stroke-9_1_" class="st1" d="M4.9,15.3v-12"/>
			<g id="Group-13_1_" transform="translate(14.841629, 0.086458)">
				<path id="Stroke-11_1_" class="st1" d="M-0.5,13.5V0.4"/>
			</g>
		</g>
	</g>
</g>
</svg>
