<!-- Generator: Adobe Illustrator 19.2.1, SVG Export Plug-In  -->
<svg version="1.1"
	 xmlns="http://www.w3.org/2000/svg" xmlns:xlink="http://www.w3.org/1999/xlink" xmlns:a="http://ns.adobe.com/AdobeSVGViewerExtensions/3.0/"
	 x="0px" y="0px" width="19px" height="19px" viewBox="0 0 19 19" style="enable-background:new 0 0 19 19;" xml:space="preserve">
<style type="text/css">
	.st0{opacity:0.4726;}
	.st1{fill:none;stroke:#727272;stroke-linecap:round;stroke-linejoin:round;}
</style>
<defs>
</defs>
<g id="Page-1_2_" class="st0">
	<g id="Desktop-HD-Copy_1_" transform="translate(-580.000000, -127.000000)">
		<g id="Page-1_3_" transform="translate(581.000000, 128.000000)">
			<path id="Stroke-1_1_" class="st1" d="M13.1,6.1c-0.6,0.6-1.5,0.6-2.1,0c-0.6-0.6-0.6-1.5,0-2.1c0.6-0.6,1.5-0.6,2.1,0
				C13.6,4.5,13.6,5.5,13.1,6.1z"/>
			<path id="Stroke-5_1_" class="st1" d="M17.1,8.2l-8.9,8.9c-0.5,0.5-1.3,0.5-1.8,0l-6.6-6.6c-0.5-0.5-0.5-1.3,0-1.8l8.9-8.9
				c0.3-0.3,0.7-0.4,1.1-0.3l5.5,1.1c0.5,0.1,0.9,0.5,1,1l1.1,5.5C17.6,7.5,17.4,7.9,17.1,8.2L17.1,8.2z"/>
		</g>
	</g>
</g>
</svg>
