<!-- Generator: Adobe Illustrator 19.2.1, SVG Export Plug-In  -->
<svg version="1.1"
	 xmlns="http://www.w3.org/2000/svg" xmlns:xlink="http://www.w3.org/1999/xlink" xmlns:a="http://ns.adobe.com/AdobeSVGViewerExtensions/3.0/"
	 x="0px" y="0px" width="33.5px" height="33.5px" viewBox="0 0 33.5 33.5" style="enable-background:new 0 0 33.5 33.5;"
	 xml:space="preserve">
<style type="text/css">
	.st0{fill:#FFFFFF;}
</style>
<defs>
</defs>
<title>Page 1</title>
<desc>Created with Sketch.</desc>
<g id="Page-1_2_">
	<g id="Desktop-HD-Copy_1_" transform="translate(-20.000000, -179.000000)">
		<g id="Page-1_3_" transform="translate(21.000000, 180.000000)">
			<g id="Stroke-1_1_">
				<path class="st0" d="M10,20c-0.9,0-1.7-0.3-2.3-1c-0.6-0.6-1-1.4-1-2.3c0-0.9,0.3-1.7,1-2.3c1.2-1.2,3.4-1.2,4.6,0
					c0.6,0.6,1,1.4,1,2.3s-0.3,1.7-1,2.3C11.7,19.6,10.9,20,10,20z M10,15.4c-0.3,0-0.7,0.1-0.9,0.4c-0.2,0.2-0.4,0.6-0.4,0.9
					c0,0.3,0.1,0.7,0.4,0.9c0.5,0.5,1.3,0.5,1.8,0c0.2-0.2,0.4-0.6,0.4-0.9c0-0.3-0.1-0.7-0.4-0.9c0,0,0,0,0,0
					C10.6,15.5,10.3,15.4,10,15.4z"/>
			</g>
			<g id="Stroke-3_1_">
				<path class="st0" d="M19.9,20.2c-0.9,0-1.7-0.3-2.3-1c-0.6-0.6-1-1.4-1-2.3s0.3-1.7,1-2.3c1.2-1.2,3.4-1.2,4.6,0l0,0v0
					c0,0,0,0,0,0c0.6,0.6,1,1.4,1,2.3s-0.3,1.7-1,2.3S20.8,20.2,19.9,20.2z M19.9,15.7c-0.3,0-0.7,0.1-0.9,0.4
					c-0.2,0.2-0.4,0.6-0.4,0.9s0.1,0.7,0.4,0.9c0.5,0.5,1.3,0.5,1.8,0c0.2-0.2,0.4-0.6,0.4-0.9S21,16.3,20.8,16c0,0,0,0,0,0
					C20.6,15.8,20.2,15.7,19.9,15.7z"/>
			</g>
			<g id="Stroke-5_1_">
				<path class="st0" d="M13.7,32.5c-0.8,0-1.6-0.3-2.3-0.9L-0.1,20.1C-0.7,19.5-1,18.7-1,17.8c0-0.9,0.3-1.7,0.9-2.3L15.6-0.1
					c0.8-0.8,1.8-1.1,2.9-0.9L28,1c1.3,0.3,2.2,1.2,2.5,2.5l1.9,9.5c0.2,1-0.1,2.1-0.9,2.9L15.9,31.6C15.3,32.2,14.5,32.5,13.7,32.5
					z M17.8,1c-0.3,0-0.6,0.1-0.8,0.3L1.3,17C1.1,17.2,1,17.5,1,17.8c0,0.3,0.1,0.6,0.3,0.8l11.5,11.5c0.5,0.5,1.2,0.5,1.7,0
					l15.6-15.6l0,0c0.3-0.3,0.4-0.7,0.3-1.1l-1.9-9.5c-0.1-0.5-0.5-0.8-0.9-0.9L18.1,1C18,1,17.9,1,17.8,1z"/>
			</g>
			<g id="Stroke-7_1_">
				<path class="st0" d="M15,25.5c-0.6,0-1-0.4-1-1V9.6c0-0.6,0.4-1,1-1s1,0.4,1,1v14.9C16,25,15.5,25.5,15,25.5z"/>
			</g>
			<g id="Stroke-9_1_">
				<path class="st0" d="M24.1,9.5c-0.5,0-1-0.2-1.4-0.6c-0.8-0.8-0.8-2,0-2.8c0.8-0.8,2-0.8,2.8,0c0,0,0,0,0,0c0.8,0.8,0.8,2,0,2.8
					C25.1,9.3,24.6,9.5,24.1,9.5z M24.8,6.9l-0.7,0.7c0,0,0,0,0,0L24.8,6.9z"/>
			</g>
		</g>
	</g>
</g>
</svg>
