<!-- Generator: Adobe Illustrator 19.2.1, SVG Export Plug-In  -->
<svg version="1.1"
	 xmlns="http://www.w3.org/2000/svg" xmlns:xlink="http://www.w3.org/1999/xlink" xmlns:a="http://ns.adobe.com/AdobeSVGViewerExtensions/3.0/"
	 x="0px" y="0px" width="18px" height="15.7px" viewBox="0 0 18 15.7" style="enable-background:new 0 0 18 15.7;"
	 xml:space="preserve">
<style type="text/css">
	.st0{fill:#4A90E2;}
</style>
<defs>
</defs>
<path class="st0" d="M17.4,0h-2.8c-0.4,0-0.6,0.3-0.6,0.7v2.1H4.1V0.7C4.1,0.3,3.8,0,3.4,0H0.6C0.3,0,0,0.3,0,0.7v14.4
	c0,0.4,0.3,0.7,0.6,0.7h2.8c0.2,0,0.3-0.1,0.5-0.2c0.2-0.2,0.2-0.2,0.2-1.8v-0.7h9.8v2c0,0.4,0.3,0.7,0.6,0.7h2.8
	c0.4,0,0.6-0.3,0.6-0.7V0.7C18,0.3,17.7,0,17.4,0z M2.8,14.4H1.3v-1.5h1.5V14.4z M2.8,11.4H1.3V9.9h1.5V11.4z M2.8,8.5H1.3V7h1.5
	V8.5z M2.8,5.5H1.3V4h1.5V5.5z M2.8,2.6H1.3V1.3h1.5V2.6z M13.9,11.7H4.1V4h9.8V11.7z M16.7,14.4h-1.5v-1.5h1.5V14.4z M16.7,11.4
	h-1.5V9.9h1.5V11.4z M16.7,8.5h-1.5V7h1.5V8.5z M16.7,5.5h-1.5V4h1.5V5.5z M16.7,2.6h-1.5V1.3h1.5V2.6z"/>
<path id="Fill-5_1_" class="st0" d="M10.9,7.9c0,0.1-0.1,0.2-0.2,0.3l-3,2c-0.1,0-0.1,0.1-0.2,0.1c-0.1,0-0.1,0-0.2,0
	C7.2,10.2,7.1,10,7.1,9.9V6c0-0.1,0.1-0.3,0.2-0.3c0.1-0.1,0.2-0.1,0.4,0l3,2C10.8,7.7,10.9,7.8,10.9,7.9"/>
</svg>
