<!-- Generator: Adobe Illustrator 19.2.1, SVG Export Plug-In  -->
<svg version="1.1"
	 xmlns="http://www.w3.org/2000/svg" xmlns:xlink="http://www.w3.org/1999/xlink" xmlns:a="http://ns.adobe.com/AdobeSVGViewerExtensions/3.0/"
	 x="0px" y="0px" width="38.9px" height="27px" viewBox="0 0 38.9 27" style="enable-background:new 0 0 38.9 27;"
	 xml:space="preserve">
<style type="text/css">
	.st0{fill:#FFFFFF;}
</style>
<defs>
</defs>
<title>Page 1</title>
<desc>Created with Sketch.</desc>
<g id="Page-1_2_">
	<g id="Desktop-HD-Copy_1_" transform="translate(-20.000000, -26.000000)">
		<g id="Page-1_3_" transform="translate(21.000000, 27.000000)">
			<g id="Group-14_1_" transform="translate(0.404145, 0.139957)">
				<g id="Stroke-10_1_">
					<path class="st0" d="M12.1,25.9c-7.5,0-13.5-6.1-13.5-13.5S4.7-1.1,12.1-1.1s13.5,6.1,13.5,13.5S19.6,25.9,12.1,25.9z
						 M12.1,0.9C5.8,0.9,0.6,6,0.6,12.4c0,6.4,5.2,11.5,11.5,11.5c6.4,0,11.5-5.2,11.5-11.5C23.7,6,18.5,0.9,12.1,0.9z"/>
				</g>
				<g id="Stroke-12_1_">
					<path class="st0" d="M31.8,10.3c-3.2,0-5.7-2.6-5.7-5.7s2.6-5.7,5.7-5.7s5.7,2.6,5.7,5.7S34.9,10.3,31.8,10.3z M31.8,0.9
						c-2,0-3.7,1.7-3.7,3.7s1.7,3.7,3.7,3.7s3.7-1.7,3.7-3.7S33.8,0.9,31.8,0.9z"/>
				</g>
			</g>
		</g>
	</g>
</g>
</svg>
