<?xml version="1.0" encoding="UTF-8" standalone="no"?>
<svg width="28px" height="26px" viewBox="0 0 28 26" version="1.1" xmlns="http://www.w3.org/2000/svg" xmlns:xlink="http://www.w3.org/1999/xlink">
    <!-- Generator: Sketch 3.6.1 (26313) - http://www.bohemiancoding.com/sketch -->
    <title>Page 1</title>
    <desc>Created with Sketch.</desc>
    <defs></defs>
    <g id="Page-1" stroke="none" stroke-width="1" fill="none" fill-rule="evenodd">
        <g id="Desktop-HD-Copy" transform="translate(-23.000000, -261.000000)" stroke="#FFFFFF" stroke-width="2">
            <g id="Page-1" transform="translate(23.000000, 262.000000)">
                <path d="M0.246642513,3 L10.3758713,3" id="Stroke-1"></path>
                <path d="M14.8254572,3 L27.4831178,3" id="Stroke-3"></path>
                <path d="M14.8254572,3.00929537 C14.8254572,4.33245906 13.7552889,5.40530949 12.4354332,5.40530949 C11.1155774,5.40530949 10.0454091,4.33245906 10.0454091,3.00929537 C10.0454091,1.68613168 11.1155774,0.61328125 12.4354332,0.61328125 C13.7552889,0.61328125 14.8254572,1.68613168 14.8254572,3.00929537 L14.8254572,3.00929537 Z" id="Stroke-6"></path>
                <path d="M0.246642513,21 L17.7967383,21" id="Stroke-8"></path>
                <path d="M22.5762882,21 L27.4831178,21" id="Stroke-10"></path>
                <path d="M22.5762882,21.3249002 C22.5762882,22.6480639 21.5061199,23.7209143 20.1862641,23.7209143 C18.8664083,23.7209143 17.79624,22.6480639 17.79624,21.3249002 C17.79624,20.0017365 18.8664083,18.928886 20.1862641,18.928886 C21.5061199,18.928886 22.5762882,20.0017365 22.5762882,21.3249002 L22.5762882,21.3249002 Z" id="Stroke-13"></path>
                <path d="M0,12 L5.73727579,12" id="Stroke-15"></path>
                <path d="M10.3758159,12 L27.2360877,12" id="Stroke-17"></path>
                <path d="M10.3758159,12.0280102 C10.3758159,13.3511739 9.30564763,14.4240243 7.98579184,14.4240243 C6.66593606,14.4240243 5.59576776,13.3511739 5.59576776,12.0280102 C5.59576776,10.7048465 6.66593606,9.63199606 7.98579184,9.63199606 C9.30564763,9.63199606 10.3758159,10.7048465 10.3758159,12.0280102 L10.3758159,12.0280102 Z" id="Stroke-19"></path>
            </g>
        </g>
    </g>
</svg>