<!-- Generator: Adobe Illustrator 19.2.1, SVG Export Plug-In  -->
<svg version="1.1"
	 xmlns="http://www.w3.org/2000/svg" xmlns:xlink="http://www.w3.org/1999/xlink" xmlns:a="http://ns.adobe.com/AdobeSVGViewerExtensions/3.0/"
	 x="0px" y="0px" width="39.8px" height="28px" viewBox="0 0 39.8 28" style="enable-background:new 0 0 39.8 28;"
	 xml:space="preserve">
<style type="text/css">
	.st0{fill:#FFFFFF;}
</style>
<defs>
</defs>
<g>
	<path class="st0" d="M38.2,23.5H1.6c-0.9,0-1.6-0.7-1.6-1.7V1.7C0,0.7,0.7,0,1.6,0h36.6c0.9,0,1.6,0.7,1.6,1.7v20.2
		C39.8,22.7,39.1,23.5,38.2,23.5z M2,21.5h35.8V2H2V21.5z"/>
</g>
<g>
	<path class="st0" d="M31.4,28H8.4c-0.6,0-1-0.4-1-1s0.4-1,1-1h23.1c0.6,0,1,0.4,1,1S32,28,31.4,28z"/>
</g>
<g>
	<path class="st0" d="M19,27.6c-0.6,0-1-0.4-1-1v-3c0-0.6,0.4-1,1-1s1,0.4,1,1v3C20,27.1,19.6,27.6,19,27.6z"/>
</g>
<g>
	<path class="st0" d="M16.8,17.4c-0.2,0-0.4,0-0.5-0.1c-0.3-0.2-0.5-0.5-0.5-0.9V7.1c0-0.4,0.2-0.7,0.5-0.9c0.3-0.2,0.7-0.2,1,0
		l8.5,4.7c0.3,0.2,0.5,0.5,0.5,0.9s-0.2,0.7-0.5,0.9l-8.5,4.7C17.1,17.4,17,17.4,16.8,17.4z M17.8,8.8v6l5.4-3L17.8,8.8z"/>
</g>
</svg>
