<?xml version="1.0" encoding="UTF-8" standalone="no"?>
<svg width="15px" height="15px" viewBox="0 0 15 15" version="1.1" xmlns="http://www.w3.org/2000/svg" xmlns:xlink="http://www.w3.org/1999/xlink">
    <!-- Generator: Sketch 3.6.1 (26313) - http://www.bohemiancoding.com/sketch -->
    <title>Fill 1</title>
    <desc>Created with Sketch.</desc>
    <defs></defs>
    <g id="Page-1" stroke="none" stroke-width="1" fill="none" fill-rule="evenodd">
        <g id="Desktop-HD-Copy-6" transform="translate(-544.000000, -393.000000)" stroke="#D2DFF2">
            <path d="M547.12852,397.896797 C546.641349,397.399477 546.645698,396.603474 547.140119,396.117753 C547.631639,395.616808 548.428367,395.612459 548.919162,396.106879 C549.405608,396.588975 549.401258,397.385703 548.907563,397.885923 C548.414593,398.371643 547.617865,398.375993 547.12852,397.896797 M558.181208,406.332392 L558.189907,404.435905 L552.659213,398.905936 C553.019517,397.60029 552.694736,396.150377 551.673997,395.133987 C550.159563,393.613028 547.688186,393.625353 546.154903,395.151386 C544.625969,396.688294 544.61292,399.158946 546.128079,400.678455 C547.146643,401.69267 548.750972,402.069647 549.896404,401.502731 L550.693131,402.299458 L552.29746,402.299458 L552.29746,403.805918 L553.592232,403.805918 L553.592232,405.293529 L554.939927,405.294254 L554.939927,406.799264 L557.714336,406.799989 C558.053615,406.792739 558.179758,406.675296 558.181208,406.332392" id="Fill-1"></path>
        </g>
    </g>
</svg>