<?xml version="1.0" encoding="UTF-8" standalone="no"?>
<svg width="195px" height="48px" viewBox="0 0 195 48" version="1.1" xmlns="http://www.w3.org/2000/svg" xmlns:xlink="http://www.w3.org/1999/xlink">
    <!-- Generator: Sketch 3.6.1 (26313) - http://www.bohemiancoding.com/sketch -->
    <title>Page 1</title>
    <desc>Created with Sketch.</desc>
    <defs></defs>
    <g id="Page-1" stroke="none" stroke-width="1" fill="none" fill-rule="evenodd" stroke-linecap="round" stroke-linejoin="round">
        <g id="Desktop-HD-Copy-6" transform="translate(-538.000000, -258.000000)" stroke="#FFFFFF" stroke-width="2">
            <g id="Page-1" transform="translate(539.000000, 258.000000)">
                <path d="M0,46.253 L5.364,33.153 L18.288,1.593 L37.345,46.253" id="Stroke-1"></path>
                <path d="M31.7301,33.0947 L5.3641,33.1527" id="Stroke-3"></path>
                <g id="Group-14" transform="translate(35.000000, 0.253000)">
                    <path d="M16.5901,46 L16.5901,1.34 L0.8051,1.34" id="Stroke-4"></path>
                    <path d="M16.5901,1.3399 L32.3751,1.3399" id="Stroke-6"></path>
                    <path d="M36.6102,46 L41.6152,1.34 L60.0952,41.38 L78.7682,1.34 L83.5802,46" id="Stroke-8"></path>
                    <path d="M135.7633,23.3735 C135.7633,35.8695 125.6333,46.0005 113.1363,46.0005 C100.6403,46.0005 90.5103,35.8695 90.5103,23.3735 C90.5103,10.8775 100.6403,0.7475 113.1363,0.7475 C125.6333,0.7475 135.7633,10.8775 135.7633,23.3735 L135.7633,23.3735 Z" id="Stroke-10"></path>
                    <path d="M157.0663,9.2562 C157.0663,13.9552 153.2563,17.7652 148.5573,17.7652 C143.8573,17.7652 140.0483,13.9552 140.0483,9.2562 C140.0483,4.5572 143.8573,0.7472 148.5573,0.7472 C153.2563,0.7472 157.0663,4.5572 157.0663,9.2562 L157.0663,9.2562 Z" id="Stroke-12"></path>
                </g>
            </g>
        </g>
    </g>
</svg>