<?xml version="1.0" encoding="UTF-8" standalone="no"?>
<svg width="14px" height="14px" viewBox="0 0 14 14" version="1.1" xmlns="http://www.w3.org/2000/svg" xmlns:xlink="http://www.w3.org/1999/xlink">
    <!-- Generator: Sketch 3.6.1 (26313) - http://www.bohemiancoding.com/sketch -->
    <title>Fill 1</title>
    <desc>Created with Sketch.</desc>
    <defs></defs>
    <g id="Page-1" stroke="none" stroke-width="1" fill="none" fill-rule="evenodd">
        <g id="Desktop-HD-Copy-6" transform="translate(-544.000000, -356.000000)" stroke="#CBDBF2">
            <path d="M556.432112,366.294084 C555.197628,365.597843 553.242068,365.222432 552.723534,364.811078 C552.532529,364.699919 552.244739,364.249292 552.744044,363.429246 C553.168358,362.858807 553.526653,362.012136 553.626642,360.752778 C553.856746,357.848668 552.396005,357 550.878859,357 C549.361073,357 547.810597,357.687588 548.130435,360.752778 C548.259908,361.987508 548.693195,362.842832 549.179041,363.429246 C549.73411,364.199371 549.336075,364.671297 549.130328,364.83504 C548.612435,365.245729 546.791475,365.577209 545.567888,366.294084 C545.128832,366.552345 545.125628,366.863857 545.094862,367.069534 C545.064737,367.276543 545,368.647059 545,368.647059 L557,368.647059 C557,368.647059 556.935263,367.276543 556.905138,367.069534 C556.874372,366.863857 556.83912,366.523724 556.432112,366.294084 Z" id="Fill-1"></path>
        </g>
    </g>
</svg>