<?xml version="1.0" encoding="UTF-8" standalone="no"?>
<svg width="18px" height="18px" viewBox="0 0 18 18" version="1.1" xmlns="http://www.w3.org/2000/svg" xmlns:xlink="http://www.w3.org/1999/xlink">
    <!-- Generator: Sketch 3.6.1 (26313) - http://www.bohemiancoding.com/sketch -->
    <title>Fill 1</title>
    <desc>Created with Sketch.</desc>
    <defs></defs>
    <g id="Page-1" stroke="none" stroke-width="1" fill="none" fill-rule="evenodd" stroke-opacity="0.2">
        <g id="Desktop-HD-Copy-5" transform="translate(-386.000000, -99.000000)" stroke="#000000">
            <path d="M402.242816,113.166619 C400.596838,112.180278 397.989424,111.648446 397.298045,111.065693 C397.043371,110.908218 396.659652,110.269831 397.325393,109.108098 C397.891144,108.299977 398.368871,107.100526 398.50219,105.316436 C398.808995,101.20228 396.86134,100 394.838479,100 C392.814763,100 390.747463,100.974083 391.173913,105.316436 C391.346544,107.065636 391.92426,108.277346 392.572054,109.108098 C393.312146,110.199108 392.781434,110.867671 392.507104,111.09964 C391.816579,111.681449 389.388634,112.151046 387.757184,113.166619 C387.171777,113.532489 387.167503,113.973797 387.126482,114.265173 C387.086316,114.558435 387,116.5 387,116.5 L403,116.5 C403,116.5 402.913684,114.558435 402.873518,114.265173 C402.832497,113.973797 402.785493,113.491942 402.242816,113.166619 Z" id="Fill-1"></path>
        </g>
    </g>
</svg>