<?xml version="1.0" encoding="UTF-8" standalone="no"?>
<svg width="34px" height="33px" viewBox="0 0 34 33" version="1.1" xmlns="http://www.w3.org/2000/svg" xmlns:xlink="http://www.w3.org/1999/xlink">
    <!-- Generator: Sketch 3.6.1 (26313) - http://www.bohemiancoding.com/sketch -->
    <title>Page 1</title>
    <desc>Created with Sketch.</desc>
    <defs></defs>
    <g id="Page-1" stroke="none" stroke-width="1" fill="none" fill-rule="evenodd">
        <g id="Desktop-HD-Copy-5" transform="translate(-178.000000, -275.000000)">
            <g id="Group" transform="translate(152.000000, 230.000000)">
                <g id="Page-1" transform="translate(26.000000, 45.000000)">
                    <path d="M10.2573611,18.2425203 L31.0425231,18.2425203 C32.2709023,18.2425203 33.2744801,19.2760573 33.2744801,20.5365985 L33.2744801,27.2425707 C33.2744801,28.5031119 32.2709023,29.5366489 31.0425231,29.5366489 L2.78177174,29.5366489 C1.55339249,29.5366489 0.547138462,28.5031119 0.547138462,27.2425707 L0.547138462,20.5365985 C0.547138462,19.2760573 1.55339249,18.2425203 2.78177174,18.2425203 L4.90715139,18.2425203" id="Stroke-1" stroke="#131313" stroke-linecap="round" stroke-linejoin="round"></path>
                    <path d="M7.08411425,23.6328175 L8.90998552,22.9624873 C9.50432525,22.7461657 9.8639101,21.872867 9.71299625,21.0236041 L5.5004504,1.73892634 C5.34953655,0.889663421 4.74029175,0.371559629 4.14781516,0.590551953 L3.60750631,0.785508535 C3.01502972,1.00450086 2.65358173,1.87779952 2.80635872,2.72706244 L5.72961588,22.4817725 C5.88239286,23.333706 6.49163766,23.8491392 7.08411425,23.6328175 L7.08411425,23.6328175 Z" id="Stroke-3" stroke="#131313" stroke-linecap="round" stroke-linejoin="round"></path>
                    <path d="M24.5495084,29.7647214 C24.5495084,30.8490004 25.4299807,31.7249697 26.5138447,31.7249697 C27.600385,31.7249697 28.4808572,30.8490004 28.4808572,29.7647214" id="Stroke-5" stroke="#131313" stroke-linecap="round" stroke-linejoin="round"></path>
                    <path d="M5.81605581,29.7647214 C5.81605581,30.8490004 6.69652809,31.7249697 7.78039213,31.7249697 C8.86693238,31.7249697 9.74740465,30.8490004 9.74740465,29.7647214" id="Stroke-7" stroke="#131313" stroke-linecap="round" stroke-linejoin="round"></path>
                    <path d="M28.0687213,24.0458169 C28.0687213,24.6573931 27.5736229,25.1514611 26.9607714,25.1514611 C26.3479199,25.1514611 25.8528215,24.6573931 25.8528215,24.0458169 C25.8528215,23.4342408 26.3479199,22.9401728 26.9607714,22.9401728 C27.5736229,22.9401728 28.0687213,23.4342408 28.0687213,24.0458169" id="Fill-9" fill="#131313"></path>
                </g>
            </g>
        </g>
    </g>
</svg>