<?xml version="1.0" encoding="UTF-8" standalone="no"?>
<svg width="20px" height="16px" viewBox="0 0 20 16" version="1.1" xmlns="http://www.w3.org/2000/svg" xmlns:xlink="http://www.w3.org/1999/xlink">
    <!-- Generator: Sketch 3.6.1 (26313) - http://www.bohemiancoding.com/sketch -->
    <title>Page 1 Copy 5</title>
    <desc>Created with Sketch.</desc>
    <defs></defs>
    <g id="Page-1" stroke="none" stroke-width="1" fill="none" fill-rule="evenodd" stroke-linecap="round" opacity="0.696711754" stroke-linejoin="round">
        <g id="Desktop-HD-Copy-5" transform="translate(-527.000000, -391.000000)">
            <g id="Group-Copy-2" transform="translate(515.711164, 344.000000)">
                <g id="Page-1-Copy-5" transform="translate(11.288836, 47.000000)">
                    <path d="M18.6208628,1.91626204 L18.6208628,11.310374 C18.6208628,11.4942848 18.492017,11.6448785 18.3334376,11.6448785 L0.908287934,11.6448785 C0.749708541,11.6448785 0.620862784,11.4942848 0.620862784,11.310374 L0.620862784,0.979382955 C0.620862784,0.795472124 0.749708541,0.644878472 0.908287934,0.644878472 L18.3334376,0.644878472 C18.492017,0.644878472 18.6208628,0.795472124 18.6208628,0.979382955 L18.6208628,1.99489059" id="Stroke-1" stroke="#131313" fill="#000000"></path>
                    <path d="M4,14.5865062 L15.0007301,14.5865062" id="Stroke-3" stroke="#131313"></path>
                    <path d="M9.63945028,11.822815 L9.63945028,13.3305409" id="Stroke-6" stroke="#131313"></path>
                    <path d="M6.57710824,9.36754303 L9.46929332,2.4921875 L12.2031272,9.36754303" id="Stroke-8" stroke="#FFFFFF"></path>
                    <path d="M8.28007448,6.5 L10.6737439,6.5" id="Stroke-10" stroke="#FFFFFF"></path>
                </g>
            </g>
        </g>
    </g>
</svg>